<svg version="1.1" xmlns="http://www.w3.org/2000/svg" viewBox="0 0 678 666" width="40" height="40">
<path d="M0 0 C3.41070987 2.30024619 5.57314744 4.13809126 7 8 C7.18110508 10.64852885 7.24972679 13.18698197 7.22167969 15.83398438 C7.22059582 17.04987495 7.22059582 17.04987495 7.21949005 18.29032898 C7.21388035 21.05827221 7.19304869 23.82588468 7.171875 26.59375 C7.1632281 28.61486581 7.15517156 30.63598421 7.14764404 32.65710449 C7.12163071 38.4666114 7.07892346 44.27589628 7.03170776 50.08526611 C7.00436599 53.46096201 6.97864738 56.83666287 6.95367002 60.21237659 C6.82080203 78.07160311 6.64450292 95.93006588 6.42490387 113.78843689 C6.31344807 122.87954314 6.21530107 131.97059504 6.13371396 141.06201982 C6.07426428 147.56338741 5.99989602 154.06448198 5.91441989 160.56555891 C5.86426004 164.4114947 5.82057158 168.25723677 5.79331207 172.10340881 C5.76767173 175.6829834 5.72356997 179.26185503 5.66523361 182.84104156 C5.63853767 184.76923634 5.6312541 186.6976695 5.62460327 188.6260376 C5.41868053 199.26398621 5.41868053 199.26398621 1 204 C-2.53014495 206.35342996 -4.44957465 206.60475102 -8.59765625 206.50390625 C-15.23703446 205.11125619 -19.8898287 198.17773605 -24.0859375 193.234375 C-26.33765954 190.60583417 -28.66444612 188.05429155 -31 185.5 C-34.56231674 181.59609124 -38.07613593 177.65863351 -41.52734375 173.65625 C-42.96374707 172.04077253 -44.46564018 170.52185507 -46 169 C-51.13614946 177.22941547 -56.08924688 185.5336073 -60.87008667 193.97598267 C-62.60453652 197.03788264 -64.34735432 200.09501402 -66.08984375 203.15234375 C-66.43030228 203.74996017 -66.7707608 204.3475766 -67.12153625 204.96330261 C-70.97798741 211.72615832 -74.90889763 218.44348084 -78.88964844 225.13378906 C-79.64176134 226.39789439 -80.39236788 227.66289697 -81.14160156 228.92871094 C-88.10285031 240.68877798 -95.29638037 252.24948149 -103.203125 263.40234375 C-105.28605536 266.41353656 -107.27668317 269.47900383 -109.25 272.5625 C-109.62455322 273.14773438 -109.99910645 273.73296875 -110.38500977 274.3359375 C-112.02998757 276.91002633 -113.67233183 279.48578867 -115.31396484 282.06201172 C-123.93609148 295.57197934 -133.08041529 308.55649517 -142.74902344 321.33837891 C-144.14501882 323.19262258 -145.53006378 325.05475484 -146.9140625 326.91796875 C-155.49178664 338.45154873 -164.52097727 349.51855728 -173.90625 360.40234375 C-175.91945125 362.7378338 -177.91928161 365.08356402 -179.90625 367.44140625 C-193.73138417 383.81075724 -208.79582203 398.91958341 -224 414 C-226.3492304 416.34190051 -228.69219257 418.68971025 -231.02832031 421.04467773 C-233.45430201 423.49019107 -235.88335838 425.93262571 -238.3125 428.375 C-239.53743164 429.6125 -239.53743164 429.6125 -240.78710938 430.875 C-245.11388742 435.21901621 -249.50196732 439.40981799 -254.15307617 443.40478516 C-257.00174739 445.86522372 -259.74683752 448.43383837 -262.5 451 C-266.6082657 454.81136781 -270.74685808 458.57092354 -274.98828125 462.234375 C-277.46612707 464.4091057 -279.88578875 466.64338402 -282.3125 468.875 C-286.03274581 472.27533563 -289.82450753 475.52664393 -293.75 478.6875 C-297.4805006 481.69511718 -300.87194805 484.81128231 -304.1953125 488.25390625 C-307.11470031 491.07850874 -310.32724139 493.52084082 -313.51953125 496.02734375 C-317.12492044 498.89462177 -320.55646932 501.94220086 -324 505 C-325.27038493 506.10468255 -326.54122725 507.20883928 -327.8125 508.3125 C-331.07896025 511.16824619 -334.29378255 514.07681416 -337.5 517 C-339.33275732 518.66730006 -341.16606371 520.33399683 -343 522 C-343.78375 522.71285156 -344.5675 523.42570313 -345.375 524.16015625 C-346.07625 524.78792969 -346.7775 525.41570313 -347.5 526.0625 C-348.1084375 526.61035156 -348.716875 527.15820312 -349.34375 527.72265625 C-351 529 -351 529 -354 530 C-354 530.66 -354 531.32 -354 532 C-355.6785513 533.49629179 -357.41958898 534.92292661 -359.1875 536.3125 C-363.04573885 539.35467227 -366.56204064 542.49121105 -370 546 C-386.95873678 562.21358016 -386.95873678 562.21358016 -394.75 562.625 C-398.88701925 562.31454306 -401.18851284 561.15227348 -404 558 C-406.63520326 553.68784921 -405.84020445 549.76638843 -405 545 C-404.35747287 542.60922783 -403.64928414 540.23531323 -402.8828125 537.88134766 C-402.66969421 537.22014923 -402.45657593 536.55895081 -402.23699951 535.87771606 C-401.53987974 533.72086273 -400.83262353 531.56749017 -400.125 529.4140625 C-399.6349956 527.90590042 -399.14558451 526.39754545 -398.65673828 524.88900757 C-397.63551404 521.7424466 -396.60970477 518.59743466 -395.58007812 515.45361328 C-394.25917925 511.42039512 -392.94596315 507.38473097 -391.63565063 503.34806252 C-390.38447857 499.49428767 -389.13005491 495.64157429 -387.875 491.7890625 C-387.63557678 491.05355793 -387.39615356 490.31805336 -387.1494751 489.56026077 C-386.47381592 487.48701855 -385.79590758 485.41452705 -385.1171875 483.34228516 C-384.73159668 482.16284332 -384.34600586 480.98340149 -383.94873047 479.76821899 C-383 477 -383 477 -382 475 C-382.93642334 475.12528076 -383.87284668 475.25056152 -384.83764648 475.37963867 C-395.61360948 476.81886273 -406.39280917 478.23250205 -417.1739502 479.63238525 C-420.00908518 480.00118181 -422.84390644 480.37232499 -425.67871094 480.74365234 C-430.32597416 481.35098035 -434.9746761 481.94605849 -439.62454224 482.53311157 C-441.40470018 482.75953455 -443.18439779 482.98960903 -444.96359253 483.22348022 C-447.47066199 483.55224572 -449.9791029 483.867482 -452.48828125 484.1796875 C-453.21812225 484.27835617 -453.94796326 484.37702484 -454.69992065 484.47868347 C-459.82250648 485.09600257 -464.95281679 485.2332562 -470 484 C-473.24044458 481.43464804 -474.69560167 479.913195 -476 476 C-476.37896031 470.88403576 -476.02816453 468.13761448 -473 464 C-470.34082031 461.91723633 -470.34082031 461.91723633 -467.078125 459.83203125 C-466.17842232 459.24976273 -466.17842232 459.24976273 -465.26054382 458.6557312 C-463.95247263 457.81071291 -462.64127366 456.97052122 -461.32736206 456.13461304 C-458.46845352 454.31509379 -455.62555309 452.47120023 -452.78135681 450.62879944 C-451.25563749 449.64075797 -449.72913997 448.65391727 -448.20191956 447.66819763 C-439.05636409 441.76114076 -429.99424947 435.72950761 -420.9375 429.6875 C-420.10484619 429.13249817 -419.27219238 428.57749634 -418.41430664 428.00567627 C-405.99678466 419.7250097 -393.68774598 411.30949084 -381.47607422 402.72753906 C-377.28110478 399.80073925 -373.04405732 396.93600707 -368.8125 394.0625 C-362.65121497 389.8686628 -356.61995252 385.56543321 -350.69140625 381.046875 C-347.9653679 378.97366151 -345.20927111 376.94908072 -342.4375 374.9375 C-341.08011719 373.95136719 -341.08011719 373.95136719 -339.6953125 372.9453125 C-337.94558953 371.68246897 -336.19064877 370.42681205 -334.4296875 369.1796875 C-323.19457045 361.16418608 -312.49378381 352.42194234 -302.33203125 343.0859375 C-299.91220935 340.92147369 -297.41364222 338.89839187 -294.875 336.875 C-284.49637812 328.47185444 -274.81546891 319.09999926 -265.6015625 309.44140625 C-264 308 -264 308 -262 308 C-262 307.34 -262 306.68 -262 306 C-260.53344727 304.55249023 -260.53344727 304.55249023 -258.50390625 302.87109375 C-254.10434314 299.12812404 -250.00851552 295.15720718 -245.9375 291.0625 C-245.26912109 290.39798828 -244.60074219 289.73347656 -243.91210938 289.04882812 C-239.96095591 285.08999506 -236.21446069 281.01312979 -232.56079102 276.77905273 C-230.63470044 274.58361679 -228.59576166 272.53320161 -226.5 270.5 C-222.45164725 266.49247098 -218.69366142 262.33322536 -215 258 C-214.06044179 256.91228858 -213.12028679 255.82509251 -212.1796875 254.73828125 C-206.30494799 247.93806269 -200.53600635 241.08071523 -195 234 C-194.48679199 233.34483398 -193.97358398 232.68966797 -193.44482422 232.01464844 C-186.96778233 223.74056105 -180.51794246 215.44969463 -174.25 207.015625 C-172.61719742 204.82721598 -170.97258788 202.65184185 -169.3125 200.484375 C-151.41012887 177.02400898 -135.67368912 151.97873991 -120 127 C-123.9365238 124.61013251 -128.2195759 124.01379969 -132.67578125 123.16015625 C-134.40821852 122.81583265 -136.1406399 122.47142909 -137.87304688 122.12695312 C-140.59125392 121.59370695 -143.30993354 121.0629989 -146.02905273 120.53442383 C-148.66262521 120.02034015 -151.29421224 119.49688435 -153.92578125 118.97265625 C-154.73018143 118.81942398 -155.5345816 118.66619171 -156.36335754 118.50831604 C-161.89253617 117.40240775 -167.57870267 116.1791676 -171.875 112.3125 C-174.08644923 107.76674326 -174.42868435 103.75046109 -173.25 98.9375 C-169.69553458 94.29694792 -165.01205039 91.90293323 -160 89 C-158.77912046 88.27613336 -157.5591038 87.5508099 -156.33984375 86.82421875 C-152.75888167 84.69739812 -149.16451291 82.59424265 -145.56640625 80.49658203 C-142.73027849 78.84271377 -139.89635085 77.18511021 -137.0625 75.52734375 C-119.84426804 65.46207043 -119.84426804 65.46207043 -111.75 60.875 C-105.30923469 57.21245059 -98.96202624 53.40068549 -92.61694336 49.57519531 C-87.04024591 46.21482993 -81.43638267 42.90565055 -75.8125 39.625 C-70.74546614 36.66570383 -65.80220854 33.60932118 -60.9609375 30.2890625 C-58.19008632 28.46758663 -55.2890207 26.92217788 -52.375 25.34375 C-49.72419561 23.84395278 -47.18118033 22.21820771 -44.625 20.5625 C-40.23683821 17.73807542 -35.77228534 15.19774284 -31.16796875 12.74609375 C-28.65909677 11.36327528 -26.19663333 9.94138763 -23.73828125 8.47265625 C-22.98756348 8.02446533 -22.2368457 7.57627441 -21.46337891 7.11450195 C-19.97705055 6.2233746 -18.49351066 5.3275751 -17.01318359 4.42651367 C-6.01509814 -2.159266 -6.01509814 -2.159266 0 0 Z " fill="#ffffff" transform="translate(553,52)"/>
<path d="M0 0 C3.02508145 1.73602105 5.41790069 3.83580137 7 7 C8.29099476 16.06443129 4.38468926 20.96263378 -0.8125 28.125 C-1.59723978 29.23643226 -2.38027022 30.34907331 -3.16162109 31.46289062 C-5.41468704 34.66116403 -7.70466555 37.83190889 -10 41 C-11.11078311 42.54940316 -12.22147457 44.09887203 -13.33203125 45.6484375 C-17.56833294 51.51662194 -21.9262227 57.29199956 -26.40625 62.9765625 C-27.47890643 64.33841552 -28.54127247 65.70843015 -29.59375 67.0859375 C-34.3655714 73.32081735 -39.42144931 79.30201414 -44.52197266 85.26757812 C-45.99277618 86.99153283 -47.45601097 88.72166613 -48.91796875 90.453125 C-54.57721508 97.1337368 -60.36840899 103.65758696 -66.37255859 110.03100586 C-68.97069461 112.79209843 -71.50032737 115.58148296 -73.953125 118.47265625 C-79.29782978 124.61453983 -85.14289887 130.2914039 -90.90600586 136.03637695 C-92.9326298 138.05764268 -94.95385547 140.08419574 -96.97460938 142.11132812 C-117.57055169 162.71932209 -117.57055169 162.71932209 -123.97265625 163.125 C-127.74265294 162.89950487 -129.77228255 162.15504167 -132.9375 160 C-135.57600653 156.16217231 -136.51039548 152.65735877 -136 148 C-134.06684822 144.03359796 -131.44283929 141.20128319 -128.3125 138.125 C-127.50425781 137.32320312 -126.69601562 136.52140625 -125.86328125 135.6953125 C-123.68908707 133.64866313 -121.49451105 131.68559183 -119.234375 129.73828125 C-114.60050937 125.7107311 -110.26627334 121.41330272 -105.9375 117.0625 C-105.17373047 116.30259766 -104.40996094 115.54269531 -103.62304688 114.75976562 C-99.46608239 110.59568914 -95.48032452 106.34577962 -91.6418457 101.88696289 C-89.05159081 98.90999931 -86.33246023 96.057441 -83.625 93.1875 C-78.89803624 88.14089056 -74.42490857 82.96665852 -70.1015625 77.56640625 C-68.01998573 75.02440637 -65.8496162 72.60470665 -63.625 70.1875 C-59.10907457 65.22546062 -54.99861252 60.00520333 -50.890625 54.70703125 C-48.45390605 51.56638974 -45.96516549 48.47150714 -43.46191406 45.38378906 C-36.24139692 36.4610616 -29.54615961 27.24349706 -23.109375 17.7421875 C-22.62218994 17.02538818 -22.13500488 16.30858887 -21.63305664 15.57006836 C-20.69703315 14.18919263 -19.76617916 12.80479271 -18.84155273 11.41625977 C-13.91316445 4.12884223 -9.56682709 -1.63292781 0 0 Z " fill="#ffffff" transform="translate(453,372)"/>
<path d="M0 0 C3.06700575 1.52179675 5.11399946 3.12555339 7 6 C8.24855739 10.94620814 7.77752426 14.68625211 5.1875 19.0625 C0.83309009 23.42917585 -4.1830006 27.16554088 -9 31 C-10.77270489 32.45605775 -12.54355376 33.91437821 -14.3125 35.375 C-44.49192353 60.01300395 -76.66953355 82.35276326 -112 99 C-112.96550781 99.46535156 -113.93101563 99.93070312 -114.92578125 100.41015625 C-120.44137402 102.87920005 -124.11448888 103.69582524 -130 102 C-133.03826537 99.93139379 -134.58906769 98.40891079 -135.62890625 94.84375 C-136.1937454 91.27634485 -136.2342266 88.68706469 -135.0625 85.25 C-129.9145482 79.63405258 -122.6413835 76.8097354 -115.91040039 73.50463867 C-101.41451037 66.30528232 -87.27909598 58.25754067 -74 49 C-72.04358462 47.70543015 -70.08518557 46.41385404 -68.125 45.125 C-54.58072464 36.08371058 -41.55335623 26.38327232 -28.95068359 16.07226562 C-26.2571061 13.86975437 -23.55407531 11.67914851 -20.84667969 9.49365234 C-19.6771918 8.54773393 -18.51077155 7.59799945 -17.34863281 6.64306641 C-7.16923228 -1.67282087 -7.16923228 -1.67282087 0 0 Z " fill="#ffffff" transform="translate(233,372)"/>
</svg>